<?xml version="1.0" standalone="no"?>
<!DOCTYPE svg PUBLIC "-//W3C//DTD SVG 1.1//EN" "http://www.w3.org/Graphics/SVG/1.1/DTD/svg11.dtd" >
<svg xmlns="http://www.w3.org/2000/svg">
<metadata>Generated by IcoMoon</metadata>
<defs>
<font id="icomoon" horiz-adv-x="1024">
<font-face units-per-em="1024" ascent="960" descent="-64" />
<missing-glyph horiz-adv-x="1024" />
<glyph unicode="&#x20;" d="" horiz-adv-x="512" />
<glyph unicode="&#x47;" d="M559.066 896c0 0-200.956 0-267.94 0-120.12 0-233.17-91.006-233.17-196.422 0-107.726 81.882-194.666 204.088-194.666 8.498 0 16.756 0.17 24.842 0.752-7.93-15.186-13.602-32.288-13.602-50.042 0-29.938 16.104-54.21 36.468-74.024-15.386 0-30.242-0.448-46.452-0.448-148.782 0.002-263.3-94.758-263.3-193.020 0-96.778 125.542-157.314 274.334-157.314 169.624 0 263.306 96.244 263.306 193.028 0 77.6-22.896 124.072-93.686 174.134-24.216 17.144-70.53 58.836-70.53 83.344 0 28.72 8.196 42.868 51.428 76.646 44.312 34.624 75.672 83.302 75.672 139.916 0 67.406-30.020 133.098-86.372 154.772h84.954l59.96 43.344zM465.48 240.542c2.126-8.972 3.284-18.206 3.284-27.628 0-78.2-50.392-139.31-194.974-139.31-102.842 0-177.116 65.104-177.116 143.3 0 76.642 92.126 140.444 194.964 139.332 24-0.254 46.368-4.116 66.67-10.69 55.826-38.826 95.876-60.762 107.172-105.004zM300.818 532.224c-69.038 2.064-134.636 77.226-146.552 167.86-11.916 90.666 34.37 160.042 103.388 157.99 69.010-2.074 134.638-74.814 146.558-165.458 11.906-90.66-34.39-162.458-103.394-160.392zM832 704v192h-64v-192h-192v-64h192v-192h64v192h192v64z" />
<glyph unicode="&#x4c;" d="M717.96 76.054l-308.218 308.214c-0.872 0.868-1.55 1.826-2.358 2.726-1.746 1.894-3.482 3.818-5.058 5.87-1.216 1.522-2.268 3.134-3.38 4.746-1.372 2.024-2.74 4.096-3.91 6.236-0.998 1.778-1.866 3.544-2.734 5.38-0.686 1.426-1.552 2.758-2.178 4.25-0.304 0.8-0.492 1.676-0.798 2.514-0.686 1.794-1.246 3.634-1.804 5.494-0.746 2.388-1.492 4.784-1.986 7.202-0.44 1.866-0.688 3.7-0.964 5.558-0.374 2.482-0.746 4.932-0.896 7.418-0.156 1.924-0.124 3.85-0.124 5.774-0.030 2.426-0.056 4.844 0.124 7.232 0.186 2.020 0.494 3.974 0.748 5.99 0.374 2.328 0.678 4.686 1.21 6.994 0.436 1.946 1.022 3.846 1.582 5.768 0.72 2.354 1.432 4.718 2.33 7.042 0.282 0.626 0.402 1.302 0.648 1.954 0.5 1.214 1.184 2.298 1.74 3.476 1.028 2.17 2.050 4.322 3.232 6.426 1.116 1.956 2.354 3.82 3.6 5.682 1.18 1.766 2.358 3.506 3.656 5.182 1.524 1.958 3.172 3.822 4.844 5.65 0.872 0.902 1.55 1.926 2.45 2.828l308.618 308.68c23.034 34.956 19.21 82.45-11.548 113.21-17.634 17.632-40.732 26.45-63.76 26.45-23.1 0-46.126-8.784-63.704-26.354l-421.934-421.98c-0.894-0.896-1.578-1.928-2.446-2.83-1.68-1.828-3.322-3.692-4.844-5.648-1.298-1.678-2.484-3.416-3.662-5.184-1.246-1.866-2.486-3.73-3.604-5.68-1.178-2.11-2.206-4.254-3.232-6.424-0.558-1.178-1.24-2.262-1.74-3.478-0.242-0.65-0.37-1.334-0.65-1.954-0.902-2.324-1.614-4.686-2.326-7.044-0.562-1.926-1.142-3.822-1.584-5.768-0.53-2.306-0.842-4.66-1.216-6.99-0.248-2.016-0.558-3.97-0.748-5.994-0.184-2.386-0.156-4.806-0.122-7.232 0-1.922-0.034-3.848 0.122-5.774 0.154-2.484 0.532-4.936 0.906-7.414 0.276-1.868 0.522-3.702 0.96-5.56 0.5-2.42 1.246-4.806 1.986-7.204 0.56-1.864 1.118-3.698 1.806-5.49 0.31-0.842 0.5-1.714 0.804-2.514 0.626-1.494 1.492-2.824 2.17-4.252 0.874-1.836 1.74-3.602 2.732-5.38 1.18-2.14 2.544-4.214 3.91-6.236 1.12-1.618 2.174-3.222 3.382-4.748 1.582-2.044 3.322-3.968 5.058-5.87 0.806-0.896 1.492-1.864 2.366-2.724l421.884-421.852c35.21-35.228 92.264-35.228 127.406 0 30.934 30.842 34.66 78.642 11.254 113.632z" />
<glyph unicode="&#x52;" d="M268.62 76.476l308.22 308.21c0.876 0.868 1.55 1.828 2.356 2.726 1.734 1.894 3.472 3.82 5.066 5.872 1.21 1.52 2.266 3.132 3.376 4.746 1.376 2.020 2.738 4.098 3.906 6.234 1 1.782 1.864 3.546 2.734 5.378 0.68 1.43 1.554 2.762 2.172 4.254 0.312 0.804 0.492 1.676 0.804 2.516 0.676 1.792 1.246 3.632 1.804 5.492 0.742 2.39 1.492 4.782 1.984 7.204 0.438 1.868 0.684 3.696 0.964 5.554 0.372 2.48 0.738 4.934 0.89 7.418 0.152 1.93 0.124 3.852 0.124 5.774 0.028 2.428 0.058 4.844-0.124 7.232-0.188 2.020-0.492 3.978-0.738 5.992-0.376 2.326-0.68 4.686-1.21 6.992-0.434 1.948-1.024 3.848-1.59 5.768-0.714 2.356-1.43 4.72-2.328 7.044-0.282 0.626-0.394 1.304-0.64 1.954-0.504 1.214-1.188 2.3-1.738 3.476-1.036 2.17-2.062 4.322-3.23 6.424-1.128 1.958-2.368 3.822-3.614 5.682-1.168 1.768-2.368 3.506-3.648 5.184-1.528 1.956-3.168 3.822-4.86 5.648-0.872 0.902-1.55 1.926-2.438 2.83l-308.628 308.68c-23.032 34.956-19.206 82.448 11.55 113.21 17.632 17.632 40.732 26.45 63.76 26.45 23.1 0 46.126-8.784 63.706-26.354l421.92-421.982c0.886-0.896 1.594-1.926 2.45-2.828 1.668-1.826 3.328-3.692 4.84-5.648 1.316-1.676 2.488-3.416 3.668-5.184 1.242-1.866 2.48-3.73 3.602-5.68 1.18-2.108 2.204-4.254 3.226-6.422 0.574-1.178 1.242-2.262 1.738-3.48 0.246-0.65 0.376-1.332 0.644-1.952 0.898-2.324 1.622-4.688 2.336-7.044 0.562-1.926 1.14-3.822 1.582-5.768 0.536-2.306 0.852-4.66 1.218-6.99 0.246-2.016 0.55-3.974 0.738-5.992 0.176-2.39 0.14-4.804 0.128-7.232 0-1.92 0.036-3.846-0.128-5.776-0.14-2.48-0.528-4.938-0.89-7.414-0.282-1.868-0.532-3.696-0.964-5.558-0.492-2.418-1.234-4.808-1.988-7.204-0.55-1.864-1.122-3.7-1.796-5.492-0.324-0.84-0.492-1.71-0.812-2.512-0.624-1.492-1.488-2.828-2.172-4.254-0.876-1.832-1.738-3.602-2.722-5.378-1.176-2.14-2.55-4.214-3.914-6.238-1.118-1.618-2.176-3.222-3.382-4.742-1.574-2.050-3.312-3.972-5.050-5.876-0.812-0.894-1.496-1.864-2.372-2.722l-421.89-421.854c-35.204-35.23-92.262-35.23-127.398 0-30.92 30.84-34.642 78.644-11.242 113.632z" />
<glyph unicode="&#x61;" d="M938.402 528.094c-12.51 32.722-38.446 67.798-91.526 84.572 25.96 104.050-54.642 148.994-76.38 159.042-30.738 15.538-72.25 23.574-122.506 2.918-21.228 41.72-50.608 61.476-78.748 69.976l0.042-0.006c0 0-0.54 0.168-1.522 0.436-18.524 5.334-36.414 5.886-51.062 4.682-37.45-2.388-86.442-18.758-117.314-80.268-0.322 0.148-0.632 0.31-0.956 0.458-46.772 21.18-84.396 16.76-112.7 3.868 0.458 0.37 0.74 0.564 0.74 0.564s-5.394-2.306-13.438-7.216c-8.192-4.89-15.43-10.384-21.658-15.914-27.55-23.93-58.88-67.792-44.096-137.58-122.144-29.614-105.57-148.906-105.57-148.906s0.040 0.308 0.108 0.874c3.202-31.598 18.080-68.068 58.826-101.682-0.31-0.404-0.632-0.782-0.928-1.184-52.396-72.128-23.676-132.812-1.346-163.064 21.524-29.81 60.036-59.376 127.846-57.79 0.082-0.916 0.134-1.802 0.216-2.718 4.626-47.028 24.16-76.472 46.948-94.97-0.094 0.054-0.188 0.11-0.188 0.11s0.416-0.352 1.198-0.942c14.716-11.692 30.71-18.834 44.916-23.246 35.876-11.972 88.352-15.146 141.528 32.096 0.606-0.618 1.172-1.264 1.79-1.882 37.464-37.678 75.506-46.248 107.212-43.396-0.66-0.214-0.996-0.322-0.996-0.322s1.99 0.202 5.46 0.806c42.4 5.328 72.384 30.376 72.384 30.376v0c26.070 18.914 50.272 49.034 57.332 96.746 95.818-8.394 131.318 60.508 142.254 91.286 13.776 34.612 19.454 82.958-15.658 135.474-0.214 0.294-0.43 0.55-0.618 0.846 41.216 29.232 56.282 63.602 59.538 94.286v-0.026c0 0 0 0.108 0 0.148 3.174 30.318-5.154 57.006-11.128 71.548zM726.71 302.464c-10.626-21.308-20.368-54.546-17.568-102.664-27.524 6.914-50.204 8.392-68.336 7.074 0.052 0.028 0.134 0.082 0.202 0.11 0 0-10.856 0.672-28.222-4.91-12.846-3.646-21.482-8.394-26.216-11.53-18.886-10.52-41.15-27.792-64.194-55.972-17.432 22.424-34.41 37.342-49.448 47.284-4.184 3.214-12.106 8.368-24.47 12.994-8.246 3.308-15.24 5.004-20.486 5.878-21.334 4.492-50.39 6.094-88.622-0.526 1.17 30.376-2.584 54.024-8.18 72.104-1.156 4.762-3.658 12.59-9.066 22.41-5.73 11.152-11.704 18.604-15.926 23.030-13.87 16.534-35.19 35.446-67.784 54.024 44.862 46.086 53.606 84.612 54.602 104.522 1.534 21.468-1.75 52.248-18.98 92.94 38.472 3.012 65.416 12.502 83.9 22.746 4.95 2.348 12.578 6.806 21.308 14.804 5.408 4.768 9.12 9.026 11.448 12.072 12.792 15.396 26.298 38.628 36.402 73.34 21.132-13.048 39.966-20.958 56.134-25.51 1.292-0.504 8.178-3.006 19.84-4.224 30.618-4.392 47.66 3.478 47.66 3.478v0c19.802 4.506 43.37 13.432 69.924 29.83 27.376-90.586 78.264-104.932 78.264-104.932-0.11 0.122-0.216 0.248-0.338 0.364 18.35-9.55 42.98-18.080 75.426-22.116-13.128-30.804-17.704-56.094-18.188-75.788-0.188-3.498-0.202-8.286 0.35-14.178 0.916-11.542 3.176-20.486 5.394-26.742 6.336-20.932 19.222-47.35 44.688-76.38-49.736-25.804-70.748-55.022-79.518-73.532z" />
<glyph unicode="&#x62;" d="M911.070 687.98l-317.656 170.926c-44.872 24.646-134.69-17.9-160.79-57.136-0.718-1.074-1.284-2.094-1.914-3.13-48.558 10.448-124.99-28.076-148.888-63.804-1.030-1.542-1.902-3.020-2.75-4.492-49.586 4.704-120.504-32.252-143.518-66.44-12.13-18.022-11.244-31.18-11.23-38.608l4.292-384.116c0.284-8.096 11.116-18.864 20.368-24.030 19.25-10.768 303.24-172.674 311.090-177.146 4.228-2.388 9.214-3.418 14.134-3.252 4.202 0.142 8.404 1.17 12.22 3.124 8.34 4.226 13.516 12.052 13.568 20.378l1.812 390.502c0.026 8.174-4.832 15.728-12.824 19.814l-307.724 167.122c3.586 6.552 17.63 20.328 43.354 32.798 26.998 13.094 47.108 7.704 51.734 5.916 0 0 291.482-154.010 300.194-158.468 8.634-4.472 8.8-5.138 8.75-12.708-0.026-7.568-2.056-368.8-2.056-368.8-0.102-18.322 18.914-25.274 32.844-24.89 13.892 0.4 28.786 14.11 28.862 26.484l2.518 395.386c0.052 8.096-4.714 15.624-12.502 19.712l-306.89 157.852c5.114 7.060 18.454 19.010 40.964 29.928 26.484 12.836 46.182 7.388 50.692 5.588 0 0 285.302-154.164 293.82-158.636 8.468-4.466 8.636-5.134 8.584-12.632-0.078-7.518-2.672-365.598-2.672-365.598-0.128-18.144 18.49-25.146 32.162-24.84l-2.968-1.566c2.11-0.45 4.266-0.718 6.426-0.67 4.022 0.090 8.056 1.066 11.73 2.944 8.008 4.060 13.030 11.68 13.096 19.854l1.978 247.754 1.208 149.732c0.052 8.026-4.614 15.498-12.232 19.596l-293.64 154.504c4.394 6.78 17.604 19.172 40.758 30.416 25.93 12.58 45.206 7.080 49.614 5.288 0 0 278.978-154.138 287.306-158.624 8.288-4.458 8.442-5.12 8.378-12.568-0.066-7.44-3.264-362.2-3.264-362.2-0.156-17.976 18.064-25.020 31.428-24.788 13.34 0.244 27.68 13.542 27.796 25.712l3.778 388.33c0.076 7.95-4.486 15.382-11.94 19.482z" />
<glyph unicode="&#x66;" d="M608.936 863.818c-52.69 0-103.784-8.636-138.218-25.932-34.436-17.298-59.316-47.886-72.17-75.39-12.826-27.516-19.212-60.98-19.212-116.824v-54.9h-86.38v-138.964h86.38v-459.632h184.576v459.632h115.146l31.88 138.964h-147.028v51.786c0 33.744 5.96 56.562 17.908 68.43 11.922 11.882 35.632 20.89 63.096 20.89 27.916 0 50.296-15.29 78.504-32.2l33.636 130.714c-51.784 15.010-94.070 33.426-148.118 33.426z" />
<glyph unicode="&#x69;" d="M408.95 545.838h-218.48c-17.378 0-31.482-14.084-31.482-31.462v-130.896c0-17.378 14.104-31.48 31.482-31.48h218.48v-73.21c0-12.678 7.552-24.122 19.228-29.016 3.93-1.656 8.092-2.464 12.214-2.464 8.052 0 15.952 3.082 21.964 8.938l174.55 170.16c6.050 5.914 9.48 14.044 9.48 22.522s-3.43 16.608-9.48 22.522l-174.55 170.16c-6.012 5.858-13.912 8.94-21.964 8.94-4.124 0-8.284-0.808-12.214-2.466-11.676-4.914-19.228-16.338-19.228-28.996v-73.252zM720.060 926.172h-414.262c-80.958 0-146.81-65.852-146.81-146.808v-149.004h125.848v149.004c0 11.56 9.402 20.962 20.962 20.962h414.262c11.56 0 20.962-9.402 20.962-20.962v-660.872c0-11.558-9.402-20.96-20.962-20.96h-414.262c-11.56 0-20.962 9.402-20.962 20.96v150.972h-125.848v-150.972c0-80.918 65.852-146.808 146.81-146.808h414.262c80.958 0 146.808 65.89 146.808 146.808v660.872c0.002 80.958-65.85 146.808-146.808 146.808z" />
<glyph unicode="&#x6c;" d="M641.124 692.246c-31.26 30.616-81.828 30.434-112.804-0.568l-205.918-205.918c-31.21-31.184-31.21-82.192 0-113.376l205.918-205.92c30.976-31.002 81.544-31.184 112.804-0.568v526.35z" />
<glyph unicode="&#x6d;" d="M924 633h-824v130h824v-130zM924 513h-824v-130h824v130zM924 263h-824v-130h824v130z" />
<glyph unicode="&#x6f;" d="M327.4 369.172h261.908c15.478 0 28.032 12.542 28.032 28.032v116.648c0 15.478-12.552 28.018-28.032 28.018h-261.908v65.292c0 11.274-6.748 21.452-17.138 25.83-3.514 1.48-7.222 2.202-10.892 2.202-7.172 0-14.228-2.75-19.572-7.964l-155.522-151.634c-5.408-5.266-8.46-12.502-8.46-20.074 0-7.544 3.052-14.782 8.46-20.060l155.522-151.636c5.344-5.2 12.4-7.958 19.572-7.958 3.67 0 7.378 0.722 10.892 2.192 10.392 4.376 17.138 14.562 17.138 25.828v65.284zM734.684 880.786h-369.142c-72.134 0-130.812-58.684-130.812-130.818v-77.936l0.67 0.65c17.19 16.796 39.916 26.048 63.97 26.048 12.272 0 24.246-2.414 35.564-7.184 4.16-1.758 8.138-3.812 11.924-6.104v64.524c0 10.306 8.382 18.69 18.684 18.69h369.142c10.3 0 18.684-8.382 18.684-18.69v-588.882c0-10.3-8.382-18.696-18.684-18.696h-369.142c-10.3 0-18.684 8.394-18.684 18.696v64.528c-3.786-2.292-7.764-4.34-11.936-6.106-11.306-4.778-23.28-7.184-35.552-7.184-24.016 0-46.716 9.23-63.932 26.008l-0.708 0.684v-77.93c0-72.132 58.678-130.824 130.812-130.824h369.142c72.134 0 130.812 58.692 130.812 130.824v588.884c0 72.134-58.678 130.818-130.812 130.818z" />
<glyph unicode="&#x70;" d="M992.478 101.27l-239.652 239.648c36.146 59.368 56.956 129.080 56.956 203.668 0 216.676-187.75 404.414-404.462 404.414-216.658 0-392.324-175.664-392.324-392.346 0-216.684 187.75-404.41 404.414-404.41 72.040 0 139.52 19.504 197.538 53.394l240.938-240.95c23.584-23.588 61.806-23.588 85.366 0l59.774 59.74c23.578 23.596 15.034 53.274-8.548 76.842zM133.734 556.654c0 150.026 121.606 271.632 271.584 271.632 150.046 0 283.714-133.67 283.714-283.696 0-150.008-121.606-271.632-271.628-271.632-149.996 0-283.67 133.668-283.67 283.696z" />
<glyph unicode="&#x72;" d="M397.842 692.246c31.26 30.616 81.828 30.434 112.804-0.568l205.92-205.918c31.21-31.184 31.21-82.192 0-113.376l-205.918-205.92c-30.976-31.002-81.544-31.184-112.804-0.568v526.35z" />
<glyph unicode="&#x73;" d="M874.474 434c0 53.992 33.228 96.608 83.284 125.916-9.012 30.13-20.966 58.992-35.664 86.17-56.106-14.682-101.54 7.306-139.738 45.492-38.172 38.178-49.866 83.626-35.17 139.74-27.176 14.704-56.032 26.652-86.198 35.664-29.292-50.070-82.206-83.292-136.21-83.292-53.976 0-106.904 33.22-136.21 83.292-30.152-9.004-58.992-20.96-86.17-35.648 14.668-56.128 2.99-101.56-35.182-139.754-38.202-38.186-83.648-60.172-139.754-45.506-14.696-27.164-26.652-56.026-35.664-86.156 50.054-29.31 83.282-71.926 83.282-125.918s-33.228-106.918-83.284-136.21c9.010-30.152 20.966-59.008 35.664-86.2 56.136 14.696 101.552 3.004 139.754-35.168 38.17-38.2 49.85-83.632 35.182-139.738 27.178-14.7 56.018-26.668 86.184-35.664 29.292 50.040 82.22 83.282 136.196 83.282 54.006 0 106.918-33.242 136.21-83.282 30.166 9.012 59.022 20.964 86.198 35.664-14.68 56.106-3.002 101.54 35.17 139.738 38.2 38.172 83.632 60.172 139.738 45.488 14.698 27.18 26.652 56.046 35.664 86.188-50.052 29.292-83.282 71.91-83.282 125.902zM524.778 245.708c-103.988 0-188.292 84.304-188.292 188.292 0 103.986 84.304 188.298 188.292 188.298s188.292-84.312 188.292-188.298c-0.002-103.988-84.304-188.292-188.292-188.292z" />
<glyph unicode="&#x74;" d="M818.564 606.804l59.64 59.644c10.858 10.848 10.858 28.428 0 39.284l-32.304 32.304c-10.842 10.848-28.42 10.848-39.262 0l-61.204-61.194c-42.986 31.316-92.836 53.742-146.844 64.538v31.252h11.98c21.45 0 38.866 17.394 38.866 38.864v63.952c0 21.462-17.416 38.864-38.866 38.864h-171.362c-21.478 0-38.864-17.402-38.864-38.864v-63.952c0-21.47 17.386-38.864 38.864-38.864h11.994v-31.25c-171.804-34.338-301.68-186.326-301.68-368.084 0-206.976 168.4-375.376 375.36-375.376 206.988 0 375.374 168.398 375.374 375.376 0.002 88.192-30.586 169.366-81.692 233.506zM524.884 114.532c-142.668 0-258.768 116.070-258.768 258.768 0 142.68 116.1 258.766 258.768 258.766 142.696 0 258.768-116.086 258.768-258.766 0-142.698-116.072-258.768-258.768-258.768zM561.196 420.802v169.408c-11.868 1.75-23.986 2.676-36.31 2.676s-24.444-0.926-36.312-2.678v-169.406c-20.024-12.246-33.388-34.312-33.388-59.5 0-38.496 31.206-69.702 69.7-69.702s69.688 31.206 69.688 69.702c-0.002 25.19-13.362 47.254-33.378 59.5z" />
<glyph unicode="&#x75;" d="M643.608 373.464h-2.876c14.676 9.294 28.276 20.132 40.536 32.368 42.274 42.29 68.41 100.754 68.424 165.248v0.114c-0.014 64.492-26.124 122.896-68.424 165.194-19.334 19.332-42.060 35.23-67.166 46.852 48.022 73.6-86.884 139.428-86.884 139.428 20.948-60.5-8.032-97.784-42.324-119.964-52.098-6.922-98.794-30.916-134.19-66.308-42.268-42.296-68.402-100.702-68.402-165.254h-0.028v-0.094h0.028c0.022-64.488 26.132-122.926 68.402-165.188 12.256-12.262 25.854-23.1 40.562-32.394h-2.912c-108.7 0-197.644-88.94-197.644-197.644v-65.014c86.118-77.97 200.25-125.544 325.3-125.544 125.038 0 239.17 47.566 325.288 125.54v65.020c-0.004 108.702-88.958 197.64-197.69 197.64z" />
<glyph unicode="&#x76;" d="M1095.429 653.714q13.143-36.571-85.714-168-13.714-18.286-37.143-48.571-44.571-57.143-51.429-74.857-9.714-23.429 8-46.286 9.714-12 46.286-46.857h0.571l2.286-2.286q80.571-74.857 109.143-126.286 1.714-2.857 3.714-7.143t4-15.143-0.286-19.429-14.286-15.714-33.714-7.143l-146.286-2.286q-13.714-2.857-32 2.857t-29.714 12.571l-11.429 6.857q-17.143 12-40 36.571t-39.143 44.286-34.857 33.143-32.286 8.857q-1.714-0.571-4.571-2t-9.714-8.286-12.286-16.857-9.714-29.714-3.714-44.286q0-8.571-2-15.714t-4.286-10.571l-2.286-2.857q-10.286-10.857-30.286-12.571h-65.714q-40.571-2.286-83.429 9.429t-75.143 30.286-58.857 37.714-40.286 32.857l-14.286 13.714q-5.714 5.714-15.714 17.143t-40.857 52-60.571 86.286-70 120.571-74.571 155.429q-3.429 9.143-3.429 15.429t1.714 9.143l2.286 3.429q8.571 10.857 32.571 10.857l156.571 1.143q6.857-1.143 13.143-3.714t9.143-4.857l2.857-1.714q9.143-6.286 13.714-18.286 11.429-28.571 26.286-59.143t23.429-46.571l9.143-16.571q16.571-34.286 32-59.429t27.714-39.143 23.714-22 19.429-8 15.429 2.857q1.143 0.571 2.857 2.857t6.857 12.571 7.714 26.857 5.429 46.286 0 71.429q-1.143 22.857-5.143 41.714t-8 26.286l-3.429 6.857q-14.286 19.429-48.571 24.571-7.429 1.143 2.857 13.714 9.714 10.857 21.714 17.143 30.286 14.857 136.571 13.714 46.857-0.571 77.143-7.429 11.429-2.857 19.143-7.714t11.714-13.714 6-18.286 2-26-0.571-31.429-1.429-40.286-0.857-47.143q0-6.286-0.571-24t-0.286-27.429 2-23.143 6.571-22.286 12.857-14q4.571-1.143 9.714-2.286t14.857 6.286 21.714 19.714 29.714 38.286 38.857 61.429q34.286 59.429 61.143 128.571 2.286 5.714 5.714 10t6.286 6l2.286 1.714 2.857 1.429t7.429 1.714 11.429 0.286l164.571 1.143q22.286 2.857 36.571-1.429t17.714-9.429z" horiz-adv-x="1097" />
<glyph unicode="&#x77;" d="M0.35 448l-0.35 312.074 384 52.144v-364.218zM448 821.518l511.872 74.482v-448h-511.872zM959.998 384l-0.126-448-511.872 72.016v375.984zM384 16.164l-383.688 52.594-0.020 315.242h383.708z" />
<glyph unicode="&#xe600;" d="M674.012 453.542c-29.76-40.632-82.862-65.498-141.196-65.498-58.36 0-111.49 24.866-141.25 65.498-34.19-46.712-99.506-72.944-167.582-63.694l90.080-415.848h437.478l90 415.836c-68.77-9.226-133.362 17.094-167.53 63.706zM411.872 28.2c-4.148-4.998-9.998-8.078-16.49-8.672l-2.216-0.104c-12.626 0-23.036 9.494-24.196 22.084l-26.306 288.044c-0.592 6.458 1.366 12.758 5.514 17.744 4.148 4.996 9.998 8.078 16.492 8.666 0.748 0.080 1.57 0.118 2.37 0.118 12.548 0 22.88-9.494 24.040-22.094l26.308-288.050c0.59-6.452-1.37-12.75-5.516-17.736zM555.462 43.71c0-13.4-10.898-24.298-24.296-24.298-13.4 0-24.298 10.898-24.298 24.298v288.060c0 13.4 10.898 24.296 24.298 24.296 13.398 0 24.296-10.896 24.296-24.296v-288.060zM700.706 41.508c-1.16-12.59-11.568-22.084-24.194-22.084l-2.242 0.104c-13.32 1.226-23.19 13.064-21.978 26.398l26.306 288.060c1.21 13.126 12.756 23.346 26.462 21.976 13.294-1.218 23.162-13.060 21.954-26.396l-26.308-288.058zM738.632 791.936c-3.196 0.194-5.436 0.012-8.142-0.128l-5.18-0.256-1.466 4.972c-24.89 83.984-103.476 142.64-191.106 142.64-87.604 0-166.19-58.656-191.080-142.64l-1.468-4.972-5.178 0.256c-2.732 0.128-5.178-0.128-8.298 0.128-109.89 0-199.298-89.394-199.298-199.286 0-53.67 21.050-103.978 59.312-141.776 19.016-9.316 40.994-14.238 63.642-14.238 64.028 0 116.126 38.816 116.126 86.536 0 13.4 10.898 24.298 24.296 24.298 14.918 0 25.818-10.898 25.818-24.298 0-47.718 52.124-86.536 116.206-86.536 64.052 0 116.15 38.816 116.15 86.536 0 13.4 10.9 24.298 24.298 24.298 14.89 0 25.792-10.898 25.792-24.298 0-47.718 52.15-86.536 116.228-86.536 22.572 0 44.472 4.91 63.436 14.198 38.29 37.81 59.366 88.146 59.366 141.816 0 109.892-89.484 199.286-199.454 199.286z" />
<glyph unicode="&#xe601;" d="M791.498 415.908c-1.294 129.682 105.758 191.876 110.542 194.966-60.152 88.020-153.85 100.078-187.242 101.472-79.742 8.074-155.596-46.948-196.066-46.948-40.368 0-102.818 45.754-168.952 44.552-86.916-1.292-167.058-50.538-211.812-128.38-90.304-156.698-23.126-388.84 64.89-515.926 43.008-62.204 94.292-132.076 161.626-129.58 64.842 2.588 89.362 41.958 167.756 41.958s100.428-41.958 169.050-40.67c69.774 1.296 113.982 63.398 156.692 125.796 49.39 72.168 69.726 142.038 70.924 145.626-1.548 0.706-136.060 52.236-137.408 207.134zM662.562 796.478c35.738 43.358 59.86 103.512 53.28 163.522-51.478-2.096-113.878-34.29-150.81-77.55-33.142-38.376-62.148-99.626-54.374-158.436 57.466-4.484 116.128 29.204 151.904 72.464z" />
<glyph unicode="&#xe602;" d="M896 576c-35.2 0-64-28.8-64-64v-256c0-35.2 28.8-64 64-64s64 28.8 64 64v256c0 35.2-28.8 64-64 64zM128 576c-35.2 0-64-28.8-64-64v-256c0-35.2 28.8-64 64-64s64 28.8 64 64v256c0 35.2-28.802 64-64 64zM224 224c0-53.020 42.98-96 96-96v0-128c0-35.2 28.8-64 64-64s64 28.8 64 64v128h128v-128c0-35.2 28.8-64 64-64s64 28.8 64 64v128c53.020 0 96 42.98 96 96v352h-576v-352zM798.216 639.998c-9.716 87.884-59.004 163.792-129.62 209.646l32.024 64.046c7.904 15.806 1.496 35.028-14.31 42.932s-35.030 1.496-42.932-14.312l-32.142-64.286-8.35 3.316c-28.568 9.502-59.122 14.66-90.886 14.66-31.762 0-62.316-5.158-90.888-14.656l-8.348-3.316-32.142 64.282c-7.904 15.808-27.128 22.212-42.932 14.312-15.808-7.904-22.214-27.126-14.312-42.932l32.022-64.046c-70.616-45.852-119.904-121.762-129.622-209.644v-32h574.222v31.998h-1.784zM416 704c-17.674 0-32 14.328-32 32 0 17.648 14.288 31.958 31.93 31.996 0.032 0 0.062-0.002 0.094-0.002 0.018 0 0.036 0.002 0.052 0.002 17.638-0.042 31.924-14.35 31.924-31.996 0-17.672-14.326-32-32-32zM608 704c-17.674 0-32 14.328-32 32 0 17.646 14.286 31.954 31.924 31.996 0.016 0 0.034-0.002 0.050-0.002 0.032 0 0.064 0.002 0.096 0.002 17.64-0.038 31.93-14.348 31.93-31.996 0-17.672-14.326-32-32-32z" />
<glyph unicode="&#xe604;" d="M550.802 144.48c-13.496-13.496-35.388-13.496-48.896 0v0c-13.477 13.496-13.477 35.394 0 48.89l97.804 97.773c13.471 13.496 35.394 13.496 48.865 0v0c13.496-13.496 13.496-35.394 0.025-48.89l-97.798-97.773zM648.6 193.37c13.471-13.496 13.471-35.394 0-48.89v0c-13.496-13.471-35.419-13.496-48.89 0l-97.804 97.798c-13.49 13.496-13.49 35.394-0.006 48.877v0c13.521 13.508 35.413 13.508 48.896 0.012l97.804-97.798zM349.738 400.44h307.121v98.716h-307.121v-98.716zM776.28 941.716h-548.436c-60.326 0-109.684-49.358-109.684-109.684v-767.803c0-60.319 49.358-109.684 109.684-109.684h548.436c60.326 0 109.684 49.364 109.684 109.684v767.803c0.006 60.326-49.358 109.684-109.684 109.684zM776.28 64.229h-548.436v767.81h548.436v-767.81zM655.629 713.042h-307.128v-95.975h307.128v95.975z" horiz-adv-x="1007" />
<glyph unicode="&#xe609;" d="M796.83 672.83h-565.312c-33.876 0-61.312-27.454-61.312-61.312v-335.078c0-33.876 27.438-61.312 61.312-61.312h565.312c33.812 0 61.25 27.438 61.25 61.312v335.078c0 33.858-27.438 61.312-61.25 61.312zM805.080 569.674l-151.906-99.484 123.718-96.5c13.938-10.876 16.376-31 5.5-44.938-6.25-8.062-15.688-12.312-25.25-12.312-6.876 0-13.812 2.188-19.624 6.75l-140.376 109.5c-0.188 0.156-0.25 0.376-0.438 0.5l-65.062-42.594c-5.312-3.468-11.438-5.218-17.5-5.218-6.124 0-12.25 1.75-17.562 5.218l-55.812 36.562-133.25-103.968c-5.812-4.562-12.75-6.75-19.624-6.75-9.562 0-18.938 4.25-25.25 12.312-10.876 13.938-8.438 34.062 5.5 44.938l116.062 90.5-161 105.484c-14.75 9.688-18.876 29.516-9.25 44.296 9.75 14.734 29.562 18.954 44.312 9.234l255.876-167.578 255.876 167.578c14.812 9.734 34.624 5.532 44.312-9.234 9.686-14.78 5.56-34.624-9.252-44.296z" />
<glyph unicode="&#xe60b;" d="M872.062 556.344l-273.378 273.406c-41.412 41.39-109.148 41.39-150.566 0l-273.378-273.406c-41.158-41.128-41.39-108.274-0.75-149.762h24.898v-260.784c0-104.614 95.096-154.842 199.708-154.842h268.552c104.62 0 180.746 50.228 180.746 154.842v260.784h24.922c40.62 41.488 40.382 108.634-0.754 149.762zM422.312 108.158c-47.604 0-86.194 38.592-86.194 86.196s38.59 86.194 86.194 86.194 86.194-38.59 86.194-86.194-38.59-86.196-86.194-86.196zM422.312 310.324c-47.604 0-86.194 38.592-86.194 86.196 0 47.602 38.59 86.194 86.194 86.194s86.194-38.592 86.194-86.194c0-47.604-38.59-86.196-86.194-86.196zM624.478 108.158c-47.604 0-86.196 38.592-86.196 86.196s38.592 86.194 86.196 86.194 86.194-38.59 86.194-86.194-38.59-86.196-86.194-86.196zM624.478 310.324c-47.604 0-86.196 38.592-86.196 86.196 0 47.602 38.592 86.194 86.196 86.194s86.194-38.592 86.194-86.194c0-47.604-38.59-86.196-86.194-86.196z" />
<glyph unicode="&#xe60e;" d="M851.38 827.384h-656.27c-39.32 0-71.184-31.87-71.184-71.184v-656.25c0-39.32 31.864-71.186 71.184-71.186h656.27c39.292 0 71.156 31.866 71.156 71.186v656.25c0.002 39.314-31.862 71.184-71.156 71.184zM760.062 323.296h-473.686v70.23h473.686v-70.23zM760.062 462.618h-473.686v70.23h473.686v-70.23zM760.062 601.928h-473.686v70.246h473.686v-70.246z" />
<glyph unicode="&#xe610;" d="M971.078 533.272c-4.448 13.69-16.286 23.67-30.532 25.742l-264.396 38.414-118.24 239.586c-6.368 12.908-19.518 21.082-33.91 21.082s-27.542-8.174-33.91-21.082l-118.244-239.586-264.392-38.416c-14.246-2.072-26.080-12.052-30.532-25.742-4.448-13.688-0.738-28.718 9.572-38.768l191.31-186.496-45.158-263.32c-2.432-14.184 3.4-28.524 15.042-36.982 11.652-8.478 27.088-9.59 39.83-2.884l236.482 124.32 236.48-124.32c5.534-2.91 11.578-4.344 17.598-4.344 7.836 0 15.644 2.434 22.226 7.228 11.648 8.458 17.476 22.798 15.044 36.982l-45.158 263.32 191.314 186.496c10.312 10.050 14.022 25.082 9.574 38.77z" />
</font>
</defs>
</svg>
